<?xml version="1.0" encoding="utf-8"?>
<!DOCTYPE svg PUBLIC "-//W3C//DTD SVG 20010904//EN" "http://www.w3.org/TR/2001/REC-SVG-20010904/DTD/svg10.dtd">
<svg version="1.0" xmlns="http://www.w3.org/2000/svg" width="514pt" height="514pt" viewBox="0 0 514 514" style="" preserveAspectRatio="xMidYMid meet">
<g fill="#F05434FF" stroke="#F05434FF">
<path d="M 296.699 348.738 C 296.461 349.157 298.471 358.500 301.167 369.500 C 306.320 390.526 307.208 398.819 305.020 405.500 C 302.203 414.106 295.060 421.460 286.000 425.082 C 283.143 426.224 267.890 426.575 203.016 426.991 L 123.532 427.500 119.967 442.500 L 116.402 457.500 257.721 457.753 L 399.040 458.007 398.334 455.253 C 397.945 453.739 391.961 429.100 385.037 400.500 L 372.446 348.500 334.789 348.238 C 314.078 348.094 296.938 348.319 296.699 348.738 "/></g>
<g fill="#FF7E40FF" stroke="#FF7E40FF">
<path d="M 219.548 349.000 L 142.642 349.500 133.851 386.000 C 129.017 406.075 124.810 423.528 124.503 424.784 L 123.945 427.069 203.222 426.778 C 268.392 426.539 283.123 426.238 286.000 425.085 C 295.069 421.452 302.212 414.096 305.014 405.503 C 307.181 398.861 306.433 391.350 301.627 371.471 C 299.104 361.037 296.908 351.600 296.747 350.500 C 296.456 348.515 295.881 348.504 219.548 349.000 "/></g>
<g fill="#F05434FF" stroke="#F05434FF">
<path d="M 230.893 2.497 C 229.460 3.276 227.540 5.054 226.627 6.447 C 224.621 9.508 220.006 26.294 220.003 30.541 C 220.000 33.770 250.399 160.732 251.419 161.752 C 251.749 162.082 269.014 162.386 289.785 162.426 L 327.551 162.500 309.329 87.000 C 299.306 45.475 290.413 10.034 289.566 8.243 C 288.719 6.452 286.558 4.091 284.763 2.997 C 281.740 1.154 279.734 1.010 257.500 1.044 C 238.740 1.072 232.931 1.389 230.893 2.497 "/></g>
<g fill="#F05434FF" stroke="#F05434FF">
<path d="M 407.518 461.896 C 406.459 468.160 401.377 474.968 395.527 477.958 L 390.554 480.500 233.141 480.762 L 75.728 481.024 76.393 486.683 C 76.758 489.795 77.875 494.177 78.874 496.421 C 81.144 501.519 88.422 508.295 93.584 510.118 C 96.854 511.272 123.963 511.500 258.000 511.500 L 418.500 511.500 423.070 509.386 C 429.297 506.505 434.550 500.819 436.976 494.333 C 439.535 487.495 439.535 482.505 436.976 475.667 C 433.292 465.819 424.690 459.443 413.535 458.291 L 408.219 457.743 407.518 461.896 "/></g>
<g fill="#FFF9EBFF" stroke="#FFF9EBFF">
<path d="M 157.486 288.250 C 157.135 289.220 146.117 334.479 143.487 345.750 L 142.962 348.000 219.481 348.000 C 274.504 348.000 296.000 347.691 296.000 346.899 C 296.000 346.294 292.850 332.744 289.000 316.789 C 285.150 300.833 282.000 287.604 282.000 287.390 C 282.000 287.175 254.086 287.000 219.969 287.000 C 171.251 287.000 157.840 287.268 157.486 288.250 "/></g>
<g fill="#FF7E40FF" stroke="#FF7E40FF">
<path d="M 97.336 459.043 C 92.773 459.945 86.727 463.432 83.312 467.130 C 81.037 469.594 77.060 477.573 77.022 479.750 C 77.004 480.745 108.623 481.000 231.841 481.000 C 397.926 481.000 391.720 481.184 398.924 476.054 C 402.653 473.399 406.608 466.831 407.537 461.750 L 408.223 458.000 254.861 458.110 C 170.513 458.170 99.626 458.590 97.336 459.043 "/></g>
<g fill="#FF7E40FF" stroke="#FF7E40FF">
<path d="M 172.490 226.240 C 172.240 226.933 169.081 239.875 165.471 255.000 C 161.860 270.125 158.672 283.288 158.386 284.250 C 157.894 285.903 161.266 286.000 219.452 286.000 L 281.038 286.000 280.333 283.250 C 279.945 281.738 276.646 268.125 273.001 253.000 L 266.375 225.500 219.660 225.240 C 182.811 225.035 172.849 225.246 172.490 226.240 "/></g>
<g fill="#FFF9EBFF" stroke="#FFF9EBFF">
<path d="M 180.726 191.253 C 177.000 206.789 173.685 220.513 173.359 221.750 L 172.767 224.000 219.383 224.000 C 256.002 224.000 266.003 223.732 266.014 222.750 C 266.022 222.063 262.832 208.338 258.924 192.250 L 251.819 163.000 219.659 163.003 L 187.500 163.006 180.726 191.253 "/></g>
<g fill="#F05434FF" stroke="#F05434FF">
<path d="M 266.496 226.250 C 266.734 226.938 269.665 238.975 273.008 253.000 C 276.352 267.025 279.536 280.188 280.083 282.250 L 281.077 286.000 319.039 286.000 C 339.917 286.000 357.005 285.663 357.012 285.250 C 357.018 284.838 353.778 271.113 349.811 254.750 L 342.598 225.000 304.330 225.000 C 274.152 225.000 266.154 225.264 266.496 226.250 "/></g>
<g fill="#D3CDBFFF" stroke="#D3CDBFFF">
<path d="M 282.938 292.101 C 283.901 295.621 287.338 309.638 290.574 323.250 L 296.459 348.000 334.346 348.000 C 369.927 348.000 372.207 347.893 371.802 346.250 C 371.565 345.288 368.267 331.563 364.473 315.750 L 357.574 287.000 331.444 287.000 C 317.072 287.000 299.885 286.708 293.250 286.351 L 281.186 285.703 282.938 292.101 "/></g>
<g fill="#D3CDBFFF" stroke="#D3CDBFFF">
<path d="M 252.359 165.250 C 252.685 166.488 256.000 180.208 259.726 195.739 L 266.500 223.979 304.358 223.989 L 342.217 224.000 341.701 221.750 C 341.417 220.513 338.126 206.788 334.388 191.250 L 327.591 163.000 289.679 163.000 L 251.767 163.000 252.359 165.250 "/></g>
<g fill="#FF7E40FF" stroke="#FF7E40FF">
<path d="M 204.045 95.408 C 195.562 130.658 188.433 160.063 188.203 160.750 C 187.875 161.732 194.555 162.000 219.412 162.000 L 251.038 162.000 250.479 159.750 C 250.172 158.513 243.069 129.108 234.695 94.408 L 219.469 31.315 204.045 95.408 "/></g>
<g fill="#FFC7A6FF" stroke="#FFC7A6FF">
<path d="M 157.654 286.750 C 157.399 287.163 185.160 287.268 219.345 286.985 L 281.500 286.470 219.809 286.235 C 185.879 286.106 157.909 286.338 157.654 286.750 "/></g>
</svg>
